<?xml version="1.0" standalone="no"?>
<!DOCTYPE svg PUBLIC "-//W3C//DTD SVG 20010904//EN"
 "http://www.w3.org/TR/2001/REC-SVG-20010904/DTD/svg10.dtd">
<svg version="1.0" xmlns="http://www.w3.org/2000/svg"
 width="512.000000pt" height="512.000000pt" viewBox="0 0 512.000000 512.000000"
 preserveAspectRatio="xMidYMid meet">

<g transform="translate(0.000000,512.000000) scale(0.100000,-0.100000)"
fill="#000000" stroke="none">
<path d="M2165 5106 c-172 -34 -337 -128 -485 -276 -215 -215 -300 -436 -302
-784 -1 -78 2 -159 6 -182 7 -39 5 -42 -29 -65 -85 -58 -121 -164 -112 -334 6
-119 25 -191 71 -269 32 -55 112 -121 167 -137 37 -12 42 -18 98 -133 78 -160
163 -285 271 -399 l88 -93 -176 -43 c-457 -112 -615 -187 -824 -389 -194 -188
-309 -395 -371 -667 -18 -81 -20 -133 -24 -530 -5 -469 -1 -519 42 -605 33
-66 100 -128 175 -164 l65 -31 1709 -3 c1487 -2 1717 0 1767 13 108 27 192 98
243 205 l31 65 0 470 c0 510 -3 544 -61 721 -107 330 -351 611 -659 759 -114
55 -188 79 -457 146 l-218 54 58 60 c123 127 200 237 292 419 l65 129 51 19
c95 34 178 127 210 235 24 78 34 207 24 290 -12 96 -49 166 -113 213 -54 40
-49 22 -71 275 -24 277 -63 433 -149 600 -116 223 -289 358 -543 422 -68 17
-112 18 -524 10 -30 -1 -98 2 -150 5 -66 5 -116 3 -165 -6z m1123 -705 c77
-40 155 -171 178 -304 19 -107 31 -367 23 -493 -18 -263 -113 -534 -268 -766
-185 -277 -423 -430 -668 -430 -106 0 -168 15 -272 65 -325 157 -594 590 -656
1054 -21 159 -19 203 15 306 62 184 145 296 269 361 91 48 138 49 176 4 32
-38 29 -74 -10 -120 -26 -31 -29 -45 -19 -73 14 -35 48 -35 201 0 312 70 527
166 763 340 47 34 99 67 115 73 39 15 105 7 153 -17z m122 -2266 c0 -6 -172
-438 -383 -960 l-383 -950 -81 -3 -81 -3 -27 68 c-15 37 -189 470 -386 962
-198 491 -359 894 -357 896 2 1 108 28 237 60 l235 58 75 -26 c214 -75 397
-75 591 0 l75 29 243 -60 c133 -34 242 -65 242 -71z m-2170 -1046 l0 -871
-182 4 c-204 3 -232 11 -268 71 -19 30 -20 53 -20 469 0 352 3 451 15 510 49
237 152 423 320 579 53 49 125 109 133 109 1 0 2 -392 2 -871z m2741 796 c145
-122 263 -298 319 -480 47 -150 50 -184 50 -643 0 -416 -1 -439 -20 -469 -36
-60 -65 -68 -262 -71 l-178 -4 0 866 c0 476 3 866 6 866 3 0 41 -29 85 -65z"/>
<path d="M2105 2066 c-49 -22 -58 -49 -63 -178 -6 -154 3 -219 33 -252 38 -42
64 -42 209 -1 l134 38 35 -22 c59 -36 123 -38 195 -6 l60 27 130 -37 c143 -41
168 -41 207 1 30 33 39 98 33 252 -5 130 -13 153 -67 178 -36 17 -41 16 -272
-49 -31 -9 -43 -7 -89 16 -68 34 -107 34 -181 1 l-59 -27 -128 37 c-144 41
-137 40 -177 22z"/>
<path d="M2487 1399 c-54 -41 -71 -104 -42 -159 61 -118 238 -77 238 55 0 73
-54 125 -130 125 -22 -1 -49 -9 -66 -21z"/>
<path d="M2526 959 c-61 -17 -103 -83 -92 -143 8 -40 56 -93 92 -102 65 -17
134 26 155 96 26 85 -67 175 -155 149z"/>
</g>
</svg>
